<?xml version="1.0" encoding="utf-8"?>
<!-- Generator: Adobe Illustrator 27.4.1, SVG Export Plug-In . SVG Version: 6.00 Build 0)  -->
<svg version="1.1" id="Layer_1" xmlns="http://www.w3.org/2000/svg" xmlns:xlink="http://www.w3.org/1999/xlink" x="0px" y="0px"
	 viewBox="0 0 330 100" style="enable-background:new 0 0 330 100;" xml:space="preserve">
<style type="text/css">
	.st0{fill:#FFFFFF;}
	.st1{fill-rule:evenodd;clip-rule:evenodd;fill:#FFFFFF;}
</style>
<g>
	<path class="st0" d="M124.5,55.8c0,2.3-0.3,8.8-8.5,8.8c-3.4,0-6.5-1-6.5-4.9s3-5,6.2-5.6c3.3-0.6,7-0.7,8.8-2.2V55.8z M112,48.8
		c-6.5,0.8-13,2.7-13,11.4c0,7.9,5.8,11.5,13.1,11.5c4.7,0,9.6-1.3,12.9-4.7c0.1,1.3,0.4,2.5,0.7,3.7h10.7c-1-1.6-1.3-5-1.3-8.5V45
		C127.1,46.4,122.2,47.9,112,48.8z M141.2,70.6h10.5V53.4c0-4.6,1.3-8.9,4.5-11c-5,0.3-10.1,0.7-15.1,1.6v26.6H141.2z M204.4,54
		c0.1-2.1,0-4.3-0.3-6.3l-0.6-0.2c-3.4-0.8-6.7-1.6-10.1-2.3c0.2,0.6,0.3,1.3,0.5,2.1h-17.1c0.1-1.2,0.4-2.9,1.4-4.4
		c-3.2-0.3-6.4-0.5-9.7-0.6h-0.3c-1.2,2.7-1.9,5.8-1.9,9.2c0,11.9,7.5,20.2,19.6,20.2c8.7,0,15-3.9,17.9-12.9h-9.3
		c-0.7,2.4-4.1,5-8.3,5c-5.9,0-9.1-3-9.4-9.7L204.4,54L204.4,54z M274.6,63.2v7.4h10.5V59.4c-3.3,1.6-6.8,2.9-10.4,3.7L274.6,63.2z
		 M249.1,70.6h10.5v-5.9h-0.1c-3.5-0.1-7-0.4-10.4-0.9V70.6z M206,51.5c0,12.2,7.8,20.2,19.8,20.2c9.4,0,16.2-4.8,18.7-12.7
		l-0.6-0.1c-3.1-0.7-6.3-1.5-9.4-2.4c-1,4.1-3.6,7.2-8.8,7.2c-7.1,0-9.3-6.2-9.3-12.2c0-0.1,0-0.2,0-0.3l-0.4-0.1
		c-3.3-1-6.6-1.9-9.9-2.8C206.1,49.3,206,50.4,206,51.5z"/>
	<path class="st0" d="M169,40.6c3.4,0.3,6.8,0.7,10,1.1c1.4-1.5,3.4-2.5,6.5-2.5c4.1,0,6.4,1.8,7.7,5.3c3.7,0.9,7.4,1.9,10.9,3
		c-1.5-9-7.7-16.3-18.3-16.3C178.2,31.3,172.3,34.9,169,40.6 M141.2,41.3c8.7-1.1,16.9-1.3,24.7-0.9v-8.8c-0.7-0.2-1.6-0.4-2.3-0.4
		c-5.1,0-10.3,3.3-12.2,8.2h-0.1v-7.1h-10L141.2,41.3L141.2,41.3z M124.4,44.4c3.4-0.8,7-1.6,10.6-2.2v-0.1
		c0-9.2-9.2-10.9-16.8-10.9c-8.6,0-17.4,3-18,12.8h10.5c0.4-4.2,3-5.8,7-5.8c3.7,0,6.8,0.7,6.8,5.2
		C124.5,43.8,124.4,44.2,124.4,44.4z M259.6,63.8V50.5c0-7.8,2.4-11,8.2-11c4.9,0,6.7,3.1,6.7,9.4v14.4c3.5-0.6,7-1.5,10.5-2.9V47.1
		c0-9.5-2.8-15.8-14-15.8c-4.5,0-9,2.1-11.7,6.4h-0.2v-5.3h-10v29.8C252.7,62.9,256.2,63.5,259.6,63.8z M206.2,48.2
		c3.5,1.1,7,2.3,10.3,3.4v-0.1c0-6.2,2.2-12.3,9.3-12.3c7.2,0,9.3,6.2,9.3,12.3c0,2.2-0.3,4.3-1,6.3c3.3,1.1,6.5,2.1,9.7,3
		c1.2-2.7,1.8-5.8,1.8-9.2c0-12.2-7.8-20.2-19.9-20.2C214.9,31.3,207.5,37.8,206.2,48.2z"/>
	<polygon class="st1" points="49.6,40.4 58,40.4 66.6,24.5 75.2,40.4 83.6,40.4 66.6,11 	"/>
	<polygon class="st1" points="49.6,57.1 58,57.1 66.6,73 75.2,57.1 83.6,57.1 66.6,86.5 	"/>
	<polygon class="st1" points="42.6,52.6 90.7,52.6 85.9,44.2 47.5,44.2 	"/>
</g>
<g>
	<path class="st0" d="M289.7,30.6c0-2.7,2-4.8,4.7-4.8s4.7,2.1,4.7,4.8s-2,4.8-4.7,4.8C291.6,35.4,289.7,33.4,289.7,30.6z
		 M290.5,30.6c0,2.3,1.5,4,3.9,4c2.3,0,3.8-1.7,3.8-4s-1.5-4-3.8-4C292.1,26.6,290.5,28.3,290.5,30.6z M295.2,31.1l1.4,2.1h-1.2
		l-1.3-2h-0.5v2h-1V28h2.2c1.1,0,1.7,0.6,1.7,1.6C296.5,30.4,296,30.9,295.2,31.1z M293.6,29v1.3h1.1c0.4,0,0.8-0.2,0.8-0.7
		s-0.3-0.6-0.8-0.6C294.7,29,293.6,29,293.6,29z"/>
</g>
<polygon class="st0" points="284,31.7 284.6,31.7 284.6,31.7 "/>
</svg>
